<svg xmlns="http://www.w3.org/2000/svg" width="1687" height="1724" fill="none"><g clip-path="url(#a)"><circle cx="224.5" cy="1371.5" r="361.5" fill="url(#b)" opacity=".6"/><circle cx="224.5" cy="1371.5" r="224.5" fill="url(#c)" opacity=".4"/><circle cx="224.5" cy="1371.5" r="310.5" fill="url(#d)" opacity=".4"/><g filter="url(#e)"><circle cx="229.97" cy="1367.85" r="160.889" fill="#fff" fill-opacity=".18"/></g><circle cx="226.779" cy="1368.31" r="157.699" fill="#fff"/><mask id="g" width="323" height="323" x="63" y="1210" maskUnits="userSpaceOnUse" style="mask-type:alpha"><circle cx="224.499" cy="1371.5" r="160.889" fill="url(#f)"/></mask><g mask="url(#g)"><circle cx="224.499" cy="1371.5" r="160.889" fill="url(#h)"/><path stroke="url(#i)" stroke-opacity=".39" stroke-width="3" d="M360.727 1251.63c-7.074 24.28-33.43 71.74-82.255 67.39-61.032-5.44-96.619 8.64-116.703 87.87"/><path stroke="url(#j)" stroke-opacity=".34" stroke-width="16" d="M347.055 1227.93c-7.075 24.27-33.43 71.74-82.256 67.38-61.032-5.43-96.619 8.65-116.703 87.88"/><path stroke="url(#k)" stroke-opacity=".31" stroke-width="28" d="M305.172 1192.38c19.598 26.89.506 70.17-48.502 69.11-61.259-1.32-134.591-15.06-149.305 65.34"/></g><g filter="url(#l)"><path stroke="url(#m)" stroke-width="2" d="M264.399 1276.99c-6.44 3.28-5.745 12.56-1.789 18.68 6.292 9.74 22.81-3.64 25.047-15.49 2.236-11.84-15.207-7.29-23.258-3.19Z"/></g><path fill="#F0CDA5" stroke="url(#n)" stroke-width="2" d="M261.418 1279.43c-6.563 3.28-5.855 12.57-1.823 18.69 6.412 9.74 23.245-3.65 25.524-15.5s-15.497-7.29-23.701-3.19Z"/><g filter="url(#o)"><path stroke="url(#p)" stroke-width="3" d="M157.93 1279.86c-18.906 9.5-16.866 36.38-5.251 54.11 18.47 28.21 84.733-11.78 73.524-44.87-9.451-27.9-44.64-21.12-68.273-9.24Z"/></g><path fill="#F3C58F" stroke="url(#q)" stroke-width="2" d="M155.196 1280.77c-18.906 9.51-16.866 36.38-5.252 54.12 18.471 28.2 84.734-11.79 73.524-44.88-9.451-27.9-44.64-21.12-68.272-9.24Z"/><path stroke="#000" d="M487.5 1452c4.4 24.8 20.5 38 28 41.5-16-5.67-45.9-17-37.5-17s9.833-16.33 9.5-24.5Z"/><path stroke="#85BDFF" stroke-width="8" d="M1653.52 1155.8c.5 1.49.34 3.77-1.67 7.21-1.99 3.42-5.52 7.45-10.66 12-10.27 9.08-26.27 19.6-46.92 30.88-41.25 22.53-100.38 47.71-167.62 70.15-67.23 22.43-129.64 37.82-176.15 44.58-23.29 3.38-42.39 4.57-56.06 3.48-6.85-.55-12.08-1.65-15.73-3.19-3.67-1.54-5.17-3.27-5.66-4.76-.5-1.49-.34-3.77 1.66-7.21 2-3.42 5.52-7.45 10.67-12 10.27-9.07 26.26-19.6 46.91-30.88 41.25-22.53 100.39-47.71 167.62-70.14 67.24-22.44 129.65-37.83 176.16-44.58 23.28-3.39 42.39-4.58 56.05-3.49 6.85.55 12.09 1.65 15.74 3.19 3.67 1.54 5.16 3.27 5.66 4.76Z"/><path stroke="#85BDFF" stroke-width="8" d="M1624.58 1096.35c.87 1.31 1.31 3.56.26 7.4-1.04 3.82-3.4 8.62-7.2 14.35-7.57 11.43-20.29 25.73-37.32 41.97-34.01 32.44-84.62 72.07-143.75 111.14-59.14 39.08-115.44 70.09-158.62 88.65-21.62 9.3-39.76 15.39-53.24 17.88-6.76 1.24-12.1 1.53-16.02.99-3.95-.54-5.84-1.82-6.71-3.13-.86-1.31-1.3-3.56-.25-7.4 1.04-3.82 3.4-8.62 7.2-14.35 7.57-11.42 20.29-25.73 37.32-41.97 34.01-32.44 84.62-72.06 143.75-111.14 59.14-39.07 115.44-70.09 158.61-88.65 21.62-9.3 39.77-15.39 53.25-17.88 6.76-1.24 12.1-1.53 16.02-.99 3.95.54 5.84 1.82 6.7 3.13Z"/><g filter="url(#r)"><ellipse cx="1417.77" cy="1303.73" fill="#fff" fill-opacity=".18" rx="187.642" ry="189.118" transform="rotate(-62.75 1417.77 1303.73)"/></g><circle cx="1421.77" cy="1315.76" r="197.033" fill="#fff" transform="rotate(-62.75 1421.77 1315.76)"/><mask id="t" width="404" height="403" x="1222" y="1119" maskUnits="userSpaceOnUse" style="mask-type:alpha"><path fill="url(#s)" d="M1516.05 1141.41c38.69 19.92 68.18 50.67 86.67 86.63 4.07 7.92 10.29 6.23 12.02 10.2 1.71 6.26 3.12 8.11 5.12 14.8 1.01 3.38-3.89 6.84-1.74 14.81 12.57 46.66 8.47 97.96-15.4 144.31-50.83 98.7-172.05 137.5-270.75 86.67-98.7-50.84-137.5-172.06-86.67-270.75 13.8-26.8 32.78-49.17 55.1-66.54 3.41-2.66 0-7.35 2.27-8.72 5.7-3.42 6.84-4.56 11.96-7.97 1.54-.92 6.84 2.28 10.9 0 56.89-31.9 128.2-35.54 190.52-3.44"/></mask><g mask="url(#t)"><ellipse cx="1427.76" cy="1322.05" fill="url(#u)" rx="201.019" ry="216.731" transform="rotate(-62.75 1427.76 1322.05)"/><path fill="url(#v)" fill-opacity=".77" d="m1452.5 1174.5 12-15 9.5-20c3.67-3.83 12.4-12.9 18-18.5s9-7 10-7h20l36.5 14 10 25.5 15.5 42.5-15.5 21-10 18c-10.67 7.17-34.7 23.7-45.5 32.5-13.5 11 1 24.5 0 30.5s-26 11-39 11-9.5 4-16.5 0-14-2-21-2H1400c0-7.17-4.8-21.5-24-21.5-10 0-10-3-21.5-24-1-10 4-8 11.5-13s15-5 34-36.5c7-5 14-6 36.5-29.5 4.8-2.8 12.67-6.5 16-8" opacity=".42"/><path fill="url(#w)" fill-opacity=".77" d="m1198.86 1254.69 19.2.41 21.66-4.61c5.27.58 17.78 2 25.63 3.04 7.85 1.05 11.03 2.9 11.64 3.69l12.15 15.88 11.08 37.49-14.17 23.44-24.33 38.15-26.09.45-20.37 3.01c-12.18-4.12-39.92-13.15-53.47-16.38-16.94-4.03-18.85 15.69-24.22 18.54-5.37 2.86-24.54-13.95-32.44-24.28-7.9-10.32-8.95-5.11-10.03-13.1s-6.92-12.33-11.18-17.89l-9.72-12.7-12.46-16.28c5.69-4.36 14.15-16.88 2.48-32.13-6.08-7.94-3.7-9.76 5.99-31.66 7.33-6.87 8.78-1.68 17.31 1.23 8.53 2.92 13.09 8.87 49.65 4.81 8.22 2.52 13.27 7.47 45.61 11.05 5.14 2.11 12.86 6.11 16.08 7.84" opacity=".39"/><path stroke="url(#x)" stroke-opacity=".03" stroke-width="3" d="M1615.35 1302.79c-34.23 25.41-117.97 62.34-179.14 6.77-76.46-69.46-138.62-86.78-246.29-.78"/><path stroke="url(#y)" stroke-opacity=".49" stroke-width="8" d="M1618.76 1263.13c-34.22 25.41-117.96 62.34-179.13 6.77-76.47-69.46-138.62-86.78-246.29-.78"/><path stroke="url(#z)" stroke-opacity=".3" stroke-width="2" d="M1622.18 1242.63c-34.22 25.41-117.97 62.34-179.14 6.77-76.46-69.46-138.62-86.78-246.28-.78"/><path stroke="url(#A)" stroke-opacity=".26" stroke-width="37" d="M1601.04 1166.61c-1.05 56.09-70.78 94.8-135.55 43.46-80.95-64.16-165.49-157.29-267.14-64.25"/><path stroke="url(#B)" d="M1314.56 1147.81c2.57-2.46 1.25-4.08.26-4.59-1.05-1.07-12.34 3.13-14.76 9.57s11.29-1.91 14.5-4.98Z"/><path fill="#416C9F" d="M1313.59 1146.4c2.57-2.51 1.24-4.16.26-4.67-1.06-1.1-12.34 3.16-14.75 9.72s11.28-1.93 14.49-5.05"/><path stroke="url(#C)" stroke-opacity=".05" stroke-width="39" d="M1578.67 1107.57c-.78 38.22-48.23 64.68-92.19 29.77-54.96-43.62-112.32-106.98-181.53-43.47"/></g><mask id="E" width="404" height="403" x="1222" y="1119" maskUnits="userSpaceOnUse" style="mask-type:alpha"><path fill="url(#D)" d="M1516.05 1141.41c38.69 19.92 68.18 50.67 86.67 86.63 4.07 7.92 10.29 6.23 12.02 10.2 1.71 6.26 3.12 8.11 5.12 14.8 1.01 3.38-3.89 6.84-1.74 14.81 12.57 46.66 8.47 97.96-15.4 144.31-50.83 98.7-172.05 137.5-270.75 86.67-98.7-50.84-137.5-172.06-86.67-270.75 13.8-26.8 32.78-49.17 55.1-66.54 3.41-2.66 0-7.35 2.27-8.72 5.7-3.42 6.84-4.56 11.96-7.97 1.54-.92 6.84 2.28 10.9 0 56.89-31.9 128.2-35.54 190.52-3.44"/></mask><g stroke="#85BDFF" stroke-width="8" mask="url(#E)"><path d="M1653.52 1155.8c.5 1.49.34 3.77-1.67 7.21-1.99 3.42-5.51 7.45-10.66 12-10.27 9.08-26.26 19.6-46.92 30.88-41.24 22.53-100.38 47.71-167.62 70.15-67.23 22.43-129.64 37.82-176.15 44.58-23.29 3.38-42.39 4.57-56.06 3.48-6.84-.55-12.08-1.65-15.73-3.19-3.67-1.54-5.17-3.27-5.66-4.76-.69-2.05-.84-6.37.19-13.07 1-6.5 3.03-14.68 6.13-24.07 6.19-18.78 16.62-42.14 31.48-66.18 29.76-48.11 77.01-98.47 143.2-120.57 66.26-22.11 139.42-11.88 197.27 7.09 28.88 9.48 53.79 21.08 71.93 31.76 9.07 5.35 16.37 10.43 21.61 14.84 2.62 2.21 4.66 4.21 6.14 5.95 1.51 1.78 2.25 3.08 2.52 3.9Z"/><path d="M1634.98 1082.76c.9 1.28 1.4 3.51.47 7.38-.93 3.85-3.15 8.72-6.77 14.56-7.23 11.64-19.52 26.32-36.06 43.06-33.04 33.43-82.44 74.54-140.39 115.36-57.95 40.81-113.31 73.47-155.91 93.31-21.34 9.94-39.29 16.57-52.7 19.45-6.71 1.44-12.05 1.89-15.98 1.47-3.96-.43-5.89-1.65-6.8-2.93-1.24-1.78-2.63-5.87-3.56-12.58-.91-6.51-1.33-14.93-1.06-24.82.54-19.77 3.81-45.14 11.14-72.43 14.68-54.64 45.47-116.45 102.52-156.63 57.11-40.22 130.12-51.45 190.98-49.9 30.39.77 57.58 4.73 78.02 9.75 10.23 2.52 18.69 5.28 24.97 8 3.14 1.37 5.67 2.69 7.58 3.93 1.97 1.27 3.05 2.31 3.55 3.02Z"/></g><mask id="G" width="1165" height="324" x="271" y="1280" maskUnits="userSpaceOnUse" style="mask-type:alpha"><path fill="url(#F)" d="M727 1281.5c190.8-10.8 542.83 87.17 695 137.5l13.5 184.5H271v-191c72.5-39.17 265.2-120.2 456-131"/></mask><g mask="url(#G)"><path fill="url(#H)" d="M727 1281.82c190.8-10.8 542.83 87.17 695 137.5l13.5 184.5H271v-191c72.5-39.16 265.2-120.2 456-131"/><path fill="#1A4D2E" fill-opacity=".2" d="M1009.27 1360.95c-74.01 14.63-212.157 19.81-172.68-76.52 49.345-120.42 392.19 24.69 172.68 76.52"/><g filter="url(#I)"><path fill="#BADFF4" fill-opacity=".63" d="M1086.38 1408.07c-146.846-20.28-406.092-85.2-268.308-182.68 172.23-121.85 709.538 232.5 268.308 182.68"/></g><path stroke="#3888B4" d="M327 1422.5c49.667-7 130.5-27.5 180.5-67 35.942-28.39 73-59.5 122-69.5M1033 1376c-28.59 21.5-107.217 51.9-170.897 43.5C782.502 1409 630.774 1398 545 1462M1615 1355c-28.59 21.5-107.22 51.9-170.9 43.5-79.6-10.5-231.33-21.5-317.1 42.5"/><g filter="url(#J)"><path fill="#040F2C" fill-opacity=".56" d="m403 1468.62 88.5 26.5c-4.4 37.6-173.833 56.33-258 61l-105.5-5v-232c14.667-.17 64.08-1.37 105.5 9.5 70.5 18.5 147 54 208 97.5 46.909 33.45 71.396 42.17 78.7 42.5h.8q-.358.015-.8 0z"/></g><path fill="url(#K)" d="M738 1333.5c-76.4-6-111.167-29.17-116-41 51 64.5 314.5 10 452.5 62 110.4 41.6 63.17 101.17 19 121-46.67 21.33-132.9 37.6-50.5-30 103-84.5-209.5-104.5-305-112"/><mask id="M" width="508" height="210" x="622" y="1292" maskUnits="userSpaceOnUse" style="mask-type:alpha"><path fill="url(#L)" d="M732 1336c-76.4-6-105.167-31.17-110-43 51 64.5 301.5 16.5 439.5 68.5 110.4 41.6 63.17 101.17 19 121-46.67 21.33-132.9 37.6-50.5-30 103-84.5-202.5-109-298-116.5"/></mask><g mask="url(#M)"><path fill="url(#N)" d="M730 1336c-76.4-6-105.167-31.17-110-43 51 64.5 301.5 16.5 439.5 68.5 110.4 41.6 63.17 101.17 19 121-46.67 21.33-132.9 37.6-50.5-30 103-84.5-202.5-109-298-116.5"/><path fill="url(#O)" d="M564.106 1385.35c-73.303 22.35-109.28 9.44-118.106.2 71.053 41.38 286.654-94.89 434.112-96.95 117.966-1.65 95.785 71.06 61.929 105.67-35.634 36.92-109.948 83.59-57.973-9.46 64.969-116.31-228.333-27.4-319.962.54"/><path fill="#427795" fill-opacity=".12" d="M665 1340c-76.4-6-105.167-31.17-110-43 51 64.5 301.5 16.5 439.5 68.5 110.4 41.6 63.17 101.17 19 121-46.667 21.33-132.9 37.6-50.5-30 103-84.5-202.5-109-298-116.5"/><path stroke="#fff" stroke-opacity=".06" d="M1083.3 1390.75c-4.56-12.31 6.04-23.95 11.91-28.24 10.09-11.53 46.19 23.24 29.63 56.32-16.55 33.08-35.84-12.7-41.54-28.08Z"/><path stroke="#fff" stroke-opacity=".1" d="M1090.51 1380.87c-3.44-9.29 4.57-18.09 9-21.33 7.62-8.7 34.88 17.56 22.38 42.54-12.5 24.99-27.08-9.59-31.38-21.21Z"/><path stroke="#fff" stroke-opacity=".06" d="M971.675 1400.49c-13.035 1.5-21.832-11.56-24.601-18.28-8.798-12.54 33.547-39.34 61.746-15.4s-20.852 31.8-37.145 33.68Z"/></g></g><path fill="#338D57" fill-opacity=".31" d="M718.268 1500.95c-74.008 14.63-212.155 19.81-172.678-76.52 49.345-120.42 392.195 24.69 172.678 76.52"/><path fill="#669B8C" d="M991.151 1428.32c-2 22.8 21.829 27.83 33.999 27.5l-21.5 20.5c-109.166-.67-340.899-2.6-394.499-5-67-3-117.5-20-108-20s13-19 12.5-13 11 19.5 15.5 21-6.5-45-4.5-37.5 14 50 11.5 34c-2-12.8 7.166-19.33 12-21-6.334 4.67-14.5 15 3.5 19s21.833-6.33 21.5-12c2.5 9.67 9.4 26.7 17 17.5 9.5-11.5-2.5-32.12-5-34.5 6.783 4.9 13.849 23.71 16.063 30.76-.594-6.82 1.275-24.61 2.437-33.76.666 11.33 2.7 34 5.5 34s12.166-11.67 16.5-17.5c-1.834 5.17-.3 16.6 20.5 21 26 5.5 6-21 12.5-15s22 32.5 17.5 23c-3.456-7.3 1.106-19.17 4.131-24.83.122-.23.245-.45.369-.67-.12.21-.244.44-.369.67-3.161 6.01-5.381 16.83 8.869 16.83 18.5 0 9.5-24.5 14.5-15s21.5 36 18 18c-2.8-14.4 1.166-28.67 3.5-34-7 31 12.5 45.5 7 31-4.351-11.47 1.695-18.67 5.376-20.93.04-.02.082-.05.124-.07-.041.02-.083.05-.124.07-5.834 3.62-2.793 17.43 9.124 17.43 9.6 0 14.333-9.33 15.5-14-1.6 13.6 11 17.33 17.5 17.5-2-10.8 2.5-18.5 5-21-9.5 15.5 9.5 40 9.5 24 0-12.8 9.666-19 14.5-20.5-6.5 3.5-11.5 14-2.5 14 7.2 0 6.666-4.67 5.5-7 1.333 1.67 5.2 5.4 10 7 4.48 1.49 7.276-5.9 8.306-10.55.037-.34.104-.66.194-.95-.056.3-.12.62-.194.95-.443 4.02 3.364 10.55 22.194 10.55 25.5 0 11.5-27.5 17-21s45.5 46.5 33.5 27.5c-9.6-15.2 4-31.33 12-37.5-20.456 20.45-5.566 28.96-2.024 30.99l.024.01c2.8 1.6 5.5-8.67 6.5-14 1 4 5.1 12 13.5 12 10.5 0 11.5-22 12-12s12.499 20.5 13.999 12c1.2-6.8 7.167-13.17 10.001-15.5-5.2 8-2.167 19.33 0 24 15.5 14.5 25-62.5 22.5-34M1562.3 1418.32c-2 22.8 21.83 27.83 34 27.5l-21.5 20.5c-109.17-.67-340.9-2.6-394.5-5-47.77-2.14-82.4 18.94-98.34 31.22l-9.81 8.46s3.39-3.52 9.81-8.46l40.84-35.22s21.83-19.83 21.5-25.5c2.5 9.67 9.4 26.7 17 17.5 9.5-11.5-2.5-32.12-5-34.5 6.78 4.9 13.85 23.71 16.06 30.76-.59-6.82 1.28-24.61 2.44-33.76.67 11.33 2.7 34 5.5 34s12.17-11.67 16.5-17.5c-1.83 5.17-.3 16.6 20.5 21 26 5.5 6-21 12.5-15s22 32.5 17.5 23c-3.46-7.3 1.11-19.17 4.13-24.83.12-.23.25-.45.37-.67-.12.21-.24.44-.37.67-3.16 6.01-5.38 16.83 8.87 16.83 18.5 0 9.5-24.5 14.5-15s21.5 36 18 18c-2.8-14.4 1.17-28.67 3.5-34-7 31 12.5 45.5 7 31-4.35-11.47 1.69-18.67 5.37-20.93.05-.02.09-.05.13-.07-.04.02-.08.05-.13.07-5.83 3.62-2.79 17.43 9.13 17.43 9.6 0 14.33-9.33 15.5-14-1.6 13.6 11 17.33 17.5 17.5-2-10.8 2.5-18.5 5-21-9.5 15.5 9.5 40 9.5 24 0-12.8 9.67-19 14.5-20.5-6.5 3.5-11.5 14-2.5 14 7.2 0 6.67-4.67 5.5-7 1.33 1.67 5.2 5.4 10 7 4.48 1.49 7.28-5.9 8.31-10.55.03-.34.1-.66.19-.95-.06.3-.12.62-.19.95-.45 4.02 3.36 10.55 22.19 10.55 25.5 0 11.5-27.5 17-21s45.5 46.5 33.5 27.5c-9.6-15.2 4-31.33 12-37.5-20.46 20.45-5.57 28.96-2.02 30.99l.02.01c2.8 1.6 5.5-8.67 6.5-14 1 4 5.1 12 13.5 12 10.5 0 11.5-22 12-12s12.5 20.5 14 12c1.2-6.8 7.17-13.17 10-15.5-5.2 8-2.17 19.33 0 24 15.5 14.5 25-62.5 22.5-34"/><path fill="#669B8C" fill-opacity=".4" d="M958.32 1402.06c-2.746 31.32 48.48 60.4 65.18 59.94l-48.018 6c-149.879-.92-468.035-3.57-541.625-6.87-91.987-4.12-161.32-27.48-148.277-27.48s17.848-26.1 17.162-17.86c-.687 8.25 15.102 26.79 21.28 28.85 6.178 2.07-8.924-61.82-6.178-51.51 2.746 10.3 19.221 68.69 15.789 46.71-2.746-17.59 9.839-26.56 16.475-28.85-8.695 6.41-19.908 20.6 4.805 26.1 24.713 5.49 29.976-8.7 29.518-16.49 3.433 13.28 12.906 36.68 23.34 24.04 13.043-15.79-3.432-44.12-6.864-47.39 9.312 6.73 19.015 32.58 22.054 42.26-.816-9.37 1.751-33.82 3.345-46.38.915 15.57 3.707 46.71 7.551 46.71s16.704-16.03 22.654-24.05c-2.517 7.1-.412 22.81 28.145 28.85 35.696 7.56 8.238-28.85 17.162-20.6 8.924 8.24 30.204 44.65 24.026 31.6-4.745-10.03 1.519-26.34 5.672-34.11q.25-.48.506-.93c-.164.3-.333.6-.506.93-4.339 8.26-7.388 23.11 12.176 23.11 25.4 0 13.043-33.65 19.908-20.6s29.518 49.46 24.713 24.73c-3.844-19.79 1.602-39.39 4.805-46.71-9.61 42.58 17.162 62.51 9.611 42.58-5.974-15.75 2.327-25.65 7.381-28.74.056-.04.113-.07.17-.11-.056.04-.113.07-.17.11-8.01 4.97-3.834 23.94 12.526 23.94 13.181 0 19.679-12.83 21.281-19.24-2.197 18.69 15.102 23.82 24.026 24.04-2.746-14.83 3.433-25.41 6.865-28.85-13.043 21.3 13.043 54.96 13.043 32.98 0-17.59 13.272-26.11 19.908-28.17-8.924 4.81-15.789 19.24-3.433 19.24 9.885 0 9.153-6.42 7.551-9.62 1.831 2.29 7.14 7.42 13.73 9.62 6.152 2.05 9.99-8.11 11.405-14.5.05-.46.142-.9.265-1.3-.076.41-.165.84-.265 1.3-.609 5.52 4.618 14.5 30.47 14.5 35.01 0 15.788-37.78 23.34-28.85s62.468 63.88 45.993 37.78c-13.18-20.89 5.492-43.05 16.475-51.52-28.084 28.1-7.641 39.79-2.778 42.57l.032.02c3.844 2.19 7.551-11.91 8.924-19.24 1.373 5.5 7.002 16.49 18.535 16.49 14.416 0 15.789-30.23 16.475-16.49s17.162 28.17 19.221 16.49c1.648-9.34 9.84-18.09 13.73-21.3-7.139 10.99-2.975 26.56 0 32.98 21.28 19.92 34.323-85.87 30.891-46.71"/><path fill="#000" fill-opacity=".03" d="M1067.5 1447.5h434c56.8 0 88.33 2.17 91-4.5l-12 127H106v-129.5c118-2.33 280.5 0 479 5.5 125.148 3.47 362 1.5 482.5 1.5"/><path fill="url(#P)" d="M1067.5 1456.5h434c56.8 0 88.33 1.17 91-5.5l-12 128H106v-129.5c118-2.33 280.5 0 479 5.5 125.148 3.47 362 1.5 482.5 1.5"/><path fill="#000" fill-opacity=".16" d="M745 1298.5c-4.8-.8-28.333 7.33-39.5 11.5 39-15 38.5-15 45.5-11.5s9 3 11 2.5c1.6-.4 16.667 10.17 24 15.5-7.667-4.83-23.6-14.1-26-12.5-3 2-9-4.5-15-5.5"/><g filter="url(#Q)"><circle cx="1205" cy="1447" r="33" fill="#A1BFE5" fill-opacity=".5"/></g><path fill="url(#R)" d="M940.37 1437c4.4 31.6 1.833 68.17 0 82.5-3.334 5.5-11.9 14-19.5 4s-5.5-36.5-3.5-48.5c-.5 3.17-.5 11.5 3.5 19.5s5.333-24 5.5-41c7.2 20.4 5.666 52.5 4 66 6.4-8.4 9.333-58.5 10-82.5"/><path fill="url(#S)" d="M785.454 1449.04c17.558 26.64 30.962 60.76 35.469 74.49-.644 6.4-4.725 17.76-15.886 12-11.161-5.77-20.658-30.59-24.011-42.29.91 3.08 4.492 10.6 11.543 16.1 7.051 5.51-5.503-23.96-12.661-39.38 15.271 15.32 27.687 44.96 31.987 57.87 2.167-10.34-16.725-56.83-26.441-78.79"/><path fill="url(#T)" d="M792.454 1445.04c17.558 26.64 30.962 60.76 35.469 74.49-.644 6.4-4.725 17.76-15.886 12-11.161-5.77-20.658-30.59-24.011-42.29.91 3.08 4.492 10.6 11.543 16.1 7.051 5.51-5.503-23.96-12.661-39.38 15.271 15.32 27.687 44.96 31.987 57.87 2.167-10.34-16.725-56.83-26.441-78.79"/><path fill="url(#U)" d="M945.87 1466c4.4 31.6 1.833 68.17 0 82.5-3.334 5.5-11.9 14-19.5 4s-5.5-36.5-3.5-48.5c-.5 3.17-.5 11.5 3.5 19.5s5.333-24 5.5-41c7.2 20.4 5.666 52.5 4 66 6.4-8.4 9.333-58.5 10-82.5"/><path fill="url(#V)" d="M529.87 1439c4.4 31.6 1.833 68.17 0 82.5-3.334 5.5-11.9 14-19.5 4s-5.5-36.5-3.5-48.5c-.5 3.17-.5 11.5 3.5 19.5s5.333-24 5.5-41c7.2 20.4 5.666 52.5 4 66 6.4-8.4 9.333-58.5 10-82.5"/><mask id="X" width="243" height="124" x="704" y="1440" maskUnits="userSpaceOnUse" style="mask-type:alpha"><path fill="url(#W)" d="M879.5 1440.21c-6.8-4.8-107.833 73-157.5 112.5l-18 10.5 243-7V1518l-26-21-11.5-21.5c-18.167-5.67-23.2-30.49-30-35.29"/></mask><g mask="url(#X)"><path fill="url(#Y)" d="M879.5 1440.21c-6.8-4.8-107.833 73-157.5 112.5l-18 10.5 243-7 19.5-27.21c-18.167-5.67-80.2-83.99-87-88.79"/><path fill="url(#Z)" d="M831 1518.71c-5.099-5.1 27.167-51.33 46.5-80.5-31.5 6.34-104.6 27.5-137 59.5s-35.833 57.34-33.5 66l139 4 48.5-9c7.667-24.5 22.5-69.5 14-72.5s-69.5 40.5-77.5 32.5"/><path stroke="#fff" stroke-opacity=".24" d="m877.917 1438.49.665-1.01-1.181.24c-15.775 3.17-41.952 10.06-68.243 20.15-26.277 10.09-52.733 23.41-69.009 39.49-16.241 16.04-25.241 30.43-29.888 41.91-4.64 11.48-4.949 20.1-3.744 24.57l.097.36.372.01 139 4h.053l.052-.01 48.5-9 .296-.05.09-.29c.504-1.61 1.04-3.31 1.598-5.08 3.68-11.69 8.339-26.49 11.473-39.26 1.804-7.35 3.11-14.06 3.428-19.13.158-2.53.074-4.69-.338-6.33-.409-1.63-1.175-2.86-2.472-3.32-.65-.23-1.487-.22-2.431-.06-.956.16-2.082.48-3.345.92-2.526.9-5.66 2.33-9.185 4.1-5.373 2.7-11.696 6.19-18.228 9.81-2.039 1.12-4.098 2.26-6.155 3.39-8.658 4.75-17.277 9.33-24.225 12.23-3.477 1.44-6.508 2.46-8.903 2.87-1.197.2-2.211.25-3.031.14-.818-.11-1.41-.38-1.81-.78-.2-.2-.35-.54-.385-1.1-.034-.56.049-1.28.259-2.16.42-1.76 1.32-4.06 2.62-6.8 2.598-5.48 6.745-12.63 11.665-20.55 7.228-11.63 16.1-24.88 24.135-36.87 2.905-4.34 5.701-8.52 8.27-12.39Z"/></g><mask id="ab" width="251" height="124" x="337" y="1401" maskUnits="userSpaceOnUse" style="mask-type:alpha"><path fill="url(#aa)" d="M406.722 1401.21c7.024-4.8 111.384 73 162.685 112.5l18.593 10.5-251-7V1479l26.856-21 11.879-21.5c18.764-5.67 23.963-30.49 30.987-35.29"/></mask><g mask="url(#ab)"><path fill="url(#ac)" d="M406.722 1401.21c7.024-4.8 111.384 73 162.685 112.5l18.593 10.5-251-7-20.142-27.21c18.765-5.67 82.84-83.99 89.864-88.79"/><path fill="url(#ad)" d="M461 1479.71c5.099-5.1-27.167-51.33-46.5-80.5 31.5 6.34 104.6 27.5 137 59.5s35.833 57.34 33.5 66l-139 4-48.5-9c-7.667-24.5-22.5-69.5-14-72.5s69.5 40.5 77.5 32.5"/><path stroke="#fff" stroke-opacity=".24" d="m414.083 1399.49-.665-1.01 1.181.24c15.775 3.17 41.952 10.06 68.243 20.15 26.277 10.09 52.733 23.41 69.009 39.49 16.241 16.04 25.241 30.43 29.888 41.91 4.64 11.48 4.949 20.1 3.744 24.57l-.097.36-.372.01-139 4h-.053l-.052-.01-48.5-9-.296-.05-.09-.29c-.504-1.61-1.04-3.31-1.598-5.08-3.68-11.69-8.339-26.49-11.473-39.26-1.804-7.35-3.11-14.06-3.428-19.13-.158-2.53-.074-4.69.338-6.33.409-1.63 1.175-2.86 2.472-3.32.65-.23 1.487-.22 2.431-.06.956.16 2.082.48 3.345.92 2.526.9 5.66 2.33 9.185 4.1 5.373 2.7 11.696 6.19 18.228 9.81 2.039 1.12 4.098 2.26 6.155 3.39 8.658 4.75 17.277 9.33 24.225 12.23 3.477 1.44 6.508 2.46 8.903 2.87 1.197.2 2.211.25 3.031.14.818-.11 1.41-.38 1.81-.78.2-.2.35-.54.385-1.1.034-.56-.049-1.28-.259-2.16-.42-1.76-1.32-4.06-2.62-6.8-2.598-5.48-6.745-12.63-11.665-20.55-7.228-11.63-16.1-24.88-24.135-36.87a3987 3987 0 0 1-8.27-12.39Z"/></g><path fill="url(#ae)" d="M899 1457c13.564 31.95 9.133 62.07 11.081 76.38 3.541 5.49 12.641 13.98 20.715 4 8.073-9.99 5.842-36.45 3.718-48.43.531 3.16.531 11.48-3.718 19.47s-5.666-23.97-5.843-40.94c-7.648 20.37-6.02 52.42-4.249 65.9C913.905 1524.99 917 1473 899 1457"/><path fill="url(#af)" d="M486 1430c13.564 31.95 9.133 62.07 11.081 76.38 3.541 5.49 12.641 13.98 20.715 4 8.073-9.99 5.842-36.45 3.718-48.43.531 3.16.531 11.48-3.718 19.47s-5.666-23.97-5.843-40.94c-7.648 20.37-6.02 52.42-4.249 65.9C500.905 1497.99 504 1446 486 1430"/><path fill="#4F7753" d="M487.565 1451.18c-3.815 14.35 11.106 37.01 19.043 46.54-58.98-8.71-50.112-42.7-39.834-34.28 8.222 6.73 17.286-5.37 20.791-12.26"/><mask id="ah" width="527" height="302" x="-2" y="1333" maskUnits="userSpaceOnUse" style="mask-type:alpha"><path fill="url(#ag)" d="M520.62 1511.03h-37.104c-4.473 37.58-176.711 56.31-262.27 60.97L-1 1634.5l-.5-274.5c19-8.5 53-17 84-22 47.781-7.5 113.621-8.24 177 16 38.106 14.57 110 41.28 174.5 86.5 49.608 34.78 84.731 54.83 91 54.5z"/></mask><g mask="url(#ah)"><path fill="#fff" d="M522 1511h-37.5c-4.4 37.6-173.833 82.33-258 87L-8 1638.5 26 1351c78.5-25.5 159.08-17.37 200.5-6.5 70.5 18.5 147 54 208 97.5 48.8 34.8 73.333 42.83 79.5 42.5z"/><path fill="url(#ai)" d="M522 1512h-37.5c-4.4 37.6-173.833 56.33-258 61L-5 1647l-2.5-268.5 6.5-19c33.668-12.86 63.637-18.5 91-22 43-5.5 98.5-2.5 136.5 8 70.255 19.41 150.5 54.5 211.5 98 48.8 34.8 69.833 42.33 76 42z"/><path fill="url(#aj)" fill-opacity=".25" d="M243.199 1379.4c28.817-19.36 119.697 12.2 161.534 30.4l118.196 28.7 39.398 125.51c-115.569 2.07-352.11 3.49-373.723-7.31-27.016-13.51-73.731-95.12-20.262-106.94s90.617 50.65 128.327 76.54 219.506 46.15 226.26 15.76-28.705-29.83-118.196-54.03-197.555-84.43-161.534-108.63"/><path stroke="#000" stroke-opacity=".1" d="M427 1436c-1.5 2-177.5 10.5-425.5 10.5M-1.5 1535c132-51 447.018-89.2 577.447-43.73"/><g filter="url(#ak)"><circle cx="187.823" cy="1348.07" r="120.431" fill="#FFCF94" fill-opacity=".45"/></g></g><path fill="url(#al)" stroke="#FFDFB8" stroke-width="5" d="M1135.5 1528.5c123.6 8 336.83-3.33 428-10l23.5 75H612l-53.5-108c144.5 22 422.5 33 577 43Z"/><path fill="#8ABBBF" fill-opacity=".18" d="M1054.13 1491.36c-16 14 33 18.19 63 20.5 23.84 1.83 76.5-2 104.5-12 35-12.5-147.5-26-167.5-8.5"/><path stroke="#000" stroke-opacity=".09" d="M540.133 1478.36c-16 14 33 18.19 63 20.5 23.833 1.83 76.5-2 104.5-12 35-12.5-147.5-26-167.5-8.5Z"/><path stroke="#000" stroke-opacity=".09" d="M561.094 1481.56c-10.693 10.99 22.052 14.28 42.1 16.09 15.928 1.44 51.123-1.57 69.835-9.42 23.389-9.81-98.57-20.41-111.935-6.67Z"/><path fill="url(#am)" d="M444.209 1449.87c4.4 31.6 1.834 68.17 0 82.5-3.333 5.5-11.9 14-19.5 4s-5.5-36.5-3.5-48.5c-.5 3.17-.5 11.5 3.5 19.5s5.334-24 5.5-41c7.2 20.4 5.667 52.5 4 66 6.4-8.4 9.334-58.5 10-82.5"/><path fill="url(#an)" d="M449.709 1478.87c4.4 31.6 1.834 68.17 0 82.5-3.333 5.5-11.9 14-19.5 4s-5.5-36.5-3.5-48.5c-.5 3.17-.5 11.5 3.5 19.5s5.334-24 5.5-41c7.2 20.4 5.667 52.5 4 66 6.4-8.4 9.334-58.5 10-82.5"/><path fill="url(#ao)" d="M402.84 1469.87c13.563 31.95 9.133 62.07 11.081 76.38 3.541 5.49 12.641 13.98 20.715 4 8.073-9.99 5.842-36.45 3.718-48.43.531 3.16.531 11.48-3.718 19.47-4.25 7.99-5.666-23.97-5.843-40.94-7.649 20.37-6.02 52.42-4.249 65.9-6.799-8.39-3.704-60.38-21.704-76.38"/><path fill="url(#ap)" d="M269.284 1475c4.4 31.6 1.833 68.17 0 82.5-3.334 5.5-11.9 14-19.5 4s-5.5-36.5-3.5-48.5c-.5 3.17-.5 11.5 3.5 19.5s5.333-24 5.5-41c7.2 20.4 5.666 52.5 4 66 6.4-8.4 9.333-58.5 10-82.5"/><path fill="url(#aq)" d="M274.784 1504c4.4 31.6 1.833 68.17 0 82.5-3.334 5.5-11.9 14-19.5 4s-5.5-36.5-3.5-48.5c-.5 3.17-.5 11.5 3.5 19.5s5.333-24 5.5-41c7.2 20.4 5.666 52.5 4 66 6.4-8.4 9.333-58.5 10-82.5"/><path fill="url(#ar)" d="M227.914 1495c13.564 31.95 9.133 62.07 11.081 76.38 3.541 5.49 12.641 13.98 20.715 4 8.073-9.99 5.843-36.45 3.718-48.43.531 3.16.531 11.48-3.718 19.47s-5.666-23.97-5.843-40.94c-7.648 20.37-6.02 52.42-4.249 65.9-6.799-8.39-3.704-60.38-21.704-76.38"/><path fill="url(#as)" d="M233.437 1490.31c4.4 31.6 1.833 68.17 0 82.5-3.333 5.5-11.9 14-19.5 4s-5.5-36.5-3.5-48.5c-.5 3.17-.5 11.5 3.5 19.5s5.333-24 5.5-41c7.2 20.4 5.667 52.5 4 66 6.4-8.4 9.333-58.5 10-82.5"/><path fill="url(#at)" d="M238.937 1519.31c4.4 31.6 1.833 68.17 0 82.5-3.333 5.5-11.9 14-19.5 4s-5.5-36.5-3.5-48.5c-.5 3.17-.5 11.5 3.5 19.5s5.333-24 5.5-41c7.2 20.4 5.667 52.5 4 66 6.4-8.4 9.333-58.5 10-82.5"/><path fill="url(#au)" d="M192.067 1510.31c13.564 31.95 9.134 62.07 11.081 76.38 3.541 5.49 12.642 13.98 20.715 4 8.074-9.99 5.843-36.45 3.718-48.43.531 3.16.531 11.48-3.718 19.47s-5.665-23.97-5.843-40.94c-7.648 20.37-6.019 52.42-4.249 65.9-6.798-8.39-3.704-60.38-21.704-76.38"/><path fill="url(#av)" d="M162.138 1497c3.631 26.08 1.513 56.25 0 68.08-2.751 4.54-9.82 11.55-16.091 3.3s-4.539-30.12-2.889-40.02c-.412 2.61-.412 9.49 2.889 16.09s4.401-19.81 4.538-33.83c5.941 16.83 4.676 43.32 3.301 54.46 5.281-6.93 7.702-48.28 8.252-68.08"/><path fill="url(#aw)" d="M166.676 1520.93c3.631 26.08 1.513 56.25 0 68.08-2.75 4.54-9.819 11.55-16.091 3.3-6.271-8.25-4.538-30.12-2.888-40.02-.413 2.61-.413 9.49 2.888 16.09s4.401-19.81 4.539-33.83c5.941 16.83 4.676 43.32 3.3 54.46 5.282-6.93 7.702-48.28 8.252-68.08"/><path fill="url(#ax)" d="M128 1513.5c11.192 26.37 7.537 51.22 9.144 63.03 2.922 4.54 10.431 11.54 17.094 3.3 6.662-8.24 4.821-30.08 3.068-39.96.438 2.6.438 9.47-3.068 16.06-3.507 6.6-4.676-19.77-4.822-33.78-6.311 16.81-4.967 43.26-3.506 54.38-5.61-6.92-3.057-49.82-17.91-63.03"/><path fill="url(#ay)" d="M90.034 1481.15c-4.915 30.99-3.072 66.99-1.537 81.11 3.175 5.47 11.44 13.99 19.099 4.3 7.658-9.69 6.087-35.79 4.344-47.62.433 3.12.278 11.31-3.804 19.11-4.082 7.79-4.797-23.7-4.644-40.42-7.46 19.93-6.55 51.52-5.163 64.82-6.136-8.38-8.087-57.69-8.295-81.3"/><path fill="url(#az)" d="M84.086 1509.56c-4.915 30.99-3.072 66.99-1.537 81.11 3.175 5.47 11.44 13.99 19.099 4.3s6.087-35.78 4.344-47.62c.433 3.12.278 11.32-3.804 19.11s-4.797-23.7-4.644-40.42c-7.46 19.93-6.55 51.52-5.162 64.82-6.136-8.38-8.088-57.69-8.296-81.3"/><path fill="url(#aA)" d="M130.337 1501.58c-13.931 31.16-10.136 60.86-12.318 74.9-3.584 5.33-12.689 13.51-20.442 3.54-7.752-9.97-5.065-35.95-2.753-47.69-.581 3.1-.736 11.28 3.293 19.22 4.029 7.93 6.017-23.46 6.507-40.15 7.141 20.17 4.942 51.66 2.95 64.88 6.841-8.12 4.767-59.3 22.763-74.7"/><path fill="url(#aB)" d="M33.37 1448c4.4 31.6 1.833 68.17 0 82.5-3.334 5.5-11.9 14-19.5 4s-5.5-36.5-3.5-48.5c-.5 3.17-.5 11.5 3.5 19.5s5.333-24 5.5-41c7.2 20.4 5.666 52.5 4 66 6.4-8.4 9.333-58.5 10-82.5"/><path fill="url(#aC)" d="M38.87 1477c4.4 31.6 1.833 68.17 0 82.5-3.334 5.5-11.9 14-19.5 4s-5.5-36.5-3.5-48.5c-.5 3.17-.5 11.5 3.5 19.5s5.333-24 5.5-41c7.2 20.4 5.666 52.5 4 66 6.4-8.4 9.333-58.5 10-82.5"/><path fill="url(#aD)" d="M-8 1468c13.564 31.95 9.133 62.07 11.08 76.38 3.542 5.49 12.642 13.98 20.716 4 8.073-9.99 5.843-36.45 3.718-48.43.531 3.16.531 11.48-3.718 19.47-4.25 7.99-5.666-23.97-5.843-40.94-7.648 20.37-6.02 52.42-4.25 65.9C6.906 1535.99 10 1484-8 1468"/><path fill="url(#aE)" d="M1204.87 1390c4.4 31.6 1.83 68.17 0 82.5-3.33 5.5-11.9 14-19.5 4s-5.5-36.5-3.5-48.5c-.5 3.17-.5 11.5 3.5 19.5s5.33-24 5.5-41c7.2 20.4 5.67 52.5 4 66 6.4-8.4 9.33-58.5 10-82.5"/><path fill="url(#aF)" d="M1100.15 1488c4.4 31.6 3.21 53.17 1.37 67.5-3.33 5.5-5.27 10-12.87 0s-7.5-22.5-5.5-34.5l.03.06c2.68 6.27 4.6 10.77 5.54 15.21.88-9.97 2.62-23.6 5.43-36.27 7.2 20.4-.96 42-2.63 55.5 6.4-8.4 7.97-43.5 8.63-67.5"/><path fill="url(#aG)" d="M1163.5 1420c13.56 31.95 9.13 62.07 11.08 76.38 3.54 5.49 12.64 13.98 20.72 4 8.07-9.99 5.84-36.45 3.71-48.43.54 3.16.54 11.48-3.71 19.47s-5.67-23.97-5.85-40.94c-7.65 20.37-6.02 52.42-4.25 65.9-6.79-8.39-3.7-60.38-21.7-76.38"/><path fill="url(#aH)" d="M1158 1446c13.56 31.95 9.13 62.07 11.08 76.38 3.54 5.49 12.64 13.98 20.72 4 8.07-9.99 5.84-36.45 3.71-48.43.54 3.16.54 11.48-3.71 19.47s-5.67-23.97-5.85-40.94c-7.65 20.37-6.02 52.42-4.25 65.9-6.79-8.39-3.7-60.38-21.7-76.38"/><mask id="aJ" width="728" height="354" x="1064" y="1308" maskUnits="userSpaceOnUse" style="mask-type:alpha"><path fill="url(#aI)" d="M1566.5 1319.22c-40.26 5.31-296 47.68-502 236.05l30 59.88c125.5 14.93 561 79.08 609.5 23.85 4.16-4.74 109.69-195.6 83.5-283.5-21.03-70.57-166.23-43.5-221-36.28"/></mask><g mask="url(#aJ)"><path fill="#9B7CB0" d="M1064.5 1555.27c206-188.37 462-229.07 502-236.05 22.94-4 213.57-27.5 242 43.78 33.55 84.12-96.94 265.88-101 270.5-48.5 55.23-487.5-3.42-613-18.35z"/><path fill="url(#aK)" d="M1567.5 1319.22c-40 6.98-296 47.68-502 236.05l30 59.88c125.5 14.93 567 86.58 615.5 31.35 4.38-4.99 112.06-209.08 86-294-18.59-60.59-208.68-36.91-229.5-33.28"/><path fill="#6BA0BE" fill-opacity=".4" d="M1424 1415.15c20.4-68.37-168.83 9.11-266 56.4-53.33 37.01-160.8 111.98-164 115.7s395 50.67 584.5 45.24c16.5-14.34 25.3-105.13 8.5-126.06-21-26.16-47.5 1.16-121 16.28s-67.5-22.09-42-107.56"/><path stroke="#fff" stroke-opacity=".2" stroke-width="2" d="M1198 1555.85c126.72-42.73 332.66-64.94 394-69.77M1160.5 1476.78c124.5-98.84 314 33.72 408.5-30.81"/><path stroke="#fff" stroke-opacity=".2" d="M1573.59 1424.95c-23.24 8.54-45.67 11.06-63.14 8.25-17.5-2.82-29.89-10.94-33.31-23.55-3.43-12.61 2.7-27.54 15.62-41.53 12.91-13.97 32.52-26.9 55.76-35.44s45.67-11.05 63.14-8.24c17.5 2.81 29.89 10.94 33.31 23.55 3.43 12.61-2.7 27.53-15.62 41.52-12.92 13.98-32.52 26.9-55.76 35.44Z"/></g><path fill="#426045" d="M-1.5 1513.5c81-5.53 210.5 10 264 25.5s39 74 39 74l-74-5-232 35z"/><path fill="#2D4B30" d="M111.002 1556.43c27.353 1.36 122.999 18 179.5 38.5 56.5 20.5 6.5 2.79 6.5 2.79l40 17.21L10.5 1651c-8.043-12.15-17.524-37.1-12.5-64 5.179-27.72 74.5-32.5 113.002-30.57"/><path fill="#000" fill-opacity=".25" d="M876.894 1523.36c40.007 25.09 107.407 32.05 136.106 32.39-49.905 54.29-540.127 25.7-779 4.63 103.626-95.11 177.35-55.53 206.737-45.76 29.386 9.77 42.275-1.54 89.706-26.73 47.431-25.2 69.084-18 121.67 4.62 52.587 22.62 105.688 3.09 126.311 2.57 20.622-.51 48.462-3.08 98.47 28.28"/><path fill="#478A5A" d="M748 1356c-.667 2-1.6 6.8 0 10-.333-2.17-.8-7.2 0-10M738 1360c-.667 2-1.6 6.8 0 10-.333-2.17-.8-7.2 0-10M509 1370c-.667 2-1.6 6.8 0 10-.333-2.17-.8-7.2 0-10M492 1384c.755 2 1.811 6.8 0 10 .377-2.17.906-7.2 0-10M750 1362c.755 2 1.811 6.8 0 10 .377-2.17.906-7.2 0-10M745.5 1368c.528 5 .792 6 0 10-.792-3.5-.528-5.5 0-10"/><mask id="aM" width="804" height="210" x="182" y="1475" maskUnits="userSpaceOnUse" style="mask-type:alpha"><path fill="url(#aL)" d="M854 1525.5c38.8 24.4 104.167 31.17 132 31.5-48.4 52.8-1029.5 256.69-755.5 4.5 100.5-92.5 172-54 200.5-44.5s41-1.5 87-26 67-17.5 118 4.5 102.5 3 122.5 2.5 47-3 95.5 27.5"/></mask><g mask="url(#aM)"><path fill="#639688" d="M853 1525.5c38.8 24.4 104.167 31.17 132 31.5-48.4 52.8-523.833 25-755.5 4.5 100.5-92.5 172-54 200.5-44.5s41-1.5 87-26 67-17.5 118 4.5 102.5 3 122.5 2.5 47-3 95.5 27.5"/><path fill="url(#aN)" d="M854 1526.5c38.8 24.4 104.167 31.17 132 31.5-48.4 52.8-1060 227.5-755.5 4.5 100.5-92.5 172-54 200.5-44.5s41-1.5 87-26 67-17.5 118 4.5 102.5 3 122.5 2.5 47-3 95.5 27.5"/><path stroke="#78A5C9" stroke-opacity=".43" d="M641.147 1514.94c-4.494 11.95-15.64 20.16-30.13 23.73-14.486 3.57-32.264 2.48-49.886-4.15-17.623-6.62-31.713-17.52-40.257-29.75-8.545-12.24-11.515-25.76-7.021-37.71s15.64-20.16 30.13-23.73c14.486-3.57 32.264-2.48 49.886 4.15 17.623 6.62 31.713 17.52 40.257 29.75 8.545 12.23 11.515 25.76 7.021 37.71Z"/><path stroke="#78A5C9" stroke-opacity=".43" d="M636.308 1498.04c-4.494 11.95-15.641 20.17-30.13 23.74-14.487 3.57-32.264 2.48-49.887-4.15s-31.713-17.52-40.256-29.76c-8.545-12.23-11.516-25.75-7.022-37.7s15.641-20.17 30.13-23.74c14.487-3.57 32.264-2.48 49.887 4.15s31.713 17.52 40.256 29.76c8.545 12.23 11.516 25.75 7.022 37.7ZM849.308 1512.04c-4.494 11.95-15.641 20.17-30.13 23.74-14.487 3.57-32.264 2.48-49.887-4.15s-31.713-17.52-40.256-29.76c-8.545-12.23-11.516-25.75-7.022-37.7s15.641-20.17 30.13-23.74c14.487-3.57 32.264-2.48 49.887 4.15s31.713 17.52 40.256 29.76c8.545 12.23 11.516 25.75 7.022 37.7ZM383.308 1514.04c-4.494 11.95-15.641 20.17-30.13 23.74-14.487 3.57-32.264 2.48-49.887-4.15s-31.713-17.52-40.256-29.76c-8.545-12.23-11.516-25.75-7.022-37.7s15.641-20.17 30.13-23.74c14.487-3.57 32.264-2.48 49.887 4.15s31.713 17.52 40.256 29.76c8.545 12.23 11.516 25.75 7.022 37.7Z"/><path fill="#C7D4E4" d="M550 1467.5c15.5 3.5-90.8 106.8-128 70s112.5-73.5 128-70"/><path fill="#7FB3AB" fill-opacity=".36" d="M640.5 1512.5c31.6 7.6 86.167-10.83 109.5-21-21.833 5-72.9 13.2-102.5 6-37-9-46.5 5.5-7 15"/></g><path fill="#21284B" fill-opacity=".21" d="M1204.2 1394.69c-23.09 5.09-65.79 8.92-51.87-16.53 17.4-31.81 120.52-.76 51.87 16.53"/><path fill="#356829" fill-opacity=".28" d="M999.44 1421.92c4.49-4.11 14.14-10.02 16.77-.84 3.3 11.46-29.616 13.67-16.77.84M716.439 1368.92c4.493-4.11 14.137-10.02 16.773-.84 3.295 11.46-29.618 13.67-16.773.84M435.392 1362.07c-2.636-9.17-16.22-10.17-20.712-6.07-6.04 6.03-4.432 17.19 3 19 7.431 1.81 19.457-6.85 17.712-12.93"/><ellipse cx="1041" cy="1534" fill="#fff" fill-opacity=".29" rx="4" ry="2"/><ellipse cx="1051" cy="1536" fill="#fff" fill-opacity=".29" rx="4" ry="2"/><ellipse cx="1029" cy="1544" fill="#fff" fill-opacity=".29" rx="4" ry="2"/><ellipse cx="1114" cy="1477" fill="#000" fill-opacity=".29" rx="4" ry="2"/><ellipse cx="1011" cy="1533" fill="#fff" fill-opacity=".29" rx="4" ry="2"/><ellipse cx="782.5" cy="1470.5" fill="#000" fill-opacity=".29" rx="5.5" ry="2.5"/><ellipse cx="1025" cy="1537" fill="#fff" fill-opacity=".29" rx="2" ry="1"/><ellipse cx="1039" cy="1541" fill="#fff" fill-opacity=".29" rx="2" ry="1"/><ellipse cx="1012" cy="1542" fill="#fff" fill-opacity=".29" rx="2" ry="1"/><ellipse cx="1024" cy="1531" fill="#fff" fill-opacity=".29" rx="2" ry="1"/><ellipse cx="1146" cy="1479" fill="#000" fill-opacity=".29" rx="2" ry="1"/><ellipse cx="1102" cy="1469" fill="#000" fill-opacity=".29" rx="2" ry="1"/><ellipse cx="1129" cy="1477" fill="#000" fill-opacity=".29" rx="2" ry="1"/><ellipse cx="796" cy="1475" fill="#000" fill-opacity=".29" rx="2" ry="1"/><ellipse cx="768" cy="1468" fill="#000" fill-opacity=".29" rx="2" ry="1"/><ellipse cx="796" cy="1464" fill="#000" fill-opacity=".29" rx="2" ry="1"/><ellipse cx="770" cy="1477" fill="#000" fill-opacity=".29" rx="2" ry="1"/><ellipse cx="757" cy="1472" fill="#000" fill-opacity=".29" rx="2" ry="1"/><ellipse cx="753" cy="1466" fill="#000" fill-opacity=".29" rx="2" ry="1"/><ellipse cx="788" cy="1479" fill="#000" fill-opacity=".29" rx="2" ry="1"/><ellipse cx="798" cy="1470" fill="#000" fill-opacity=".29" rx="2" ry="1"/><ellipse cx="786" cy="1464" fill="#000" fill-opacity=".29" rx="4" ry="1"/><ellipse cx="743" cy="1477" fill="#000" fill-opacity=".29" rx="4" ry="1"/><ellipse cx="988.5" cy="1468.5" fill="#7E4D20" fill-opacity=".57" rx="5.5" ry="2.5"/><ellipse cx="991.5" cy="1486.5" fill="#7E4D20" fill-opacity=".57" rx="5.5" ry="2.5"/><ellipse cx="957" cy="1472" fill="#7E4D20" fill-opacity=".57" rx="2" ry="1"/><ellipse cx="976" cy="1472" fill="#7E4D20" fill-opacity=".57" rx="2" ry="1"/><ellipse cx="980" cy="1484" fill="#7E4D20" fill-opacity=".57" rx="2" ry="1"/><ellipse cx="1001" cy="1476" fill="#7E4D20" fill-opacity=".57" rx="2" ry="1"/><ellipse cx="988" cy="1478" fill="#7E4D20" fill-opacity=".57" rx="2" ry="1"/><ellipse cx="835" cy="1373" fill="#FFE4C0" rx="2" ry="1"/><ellipse cx="1313.95" cy="1478.56" fill="#FFE4C0" rx="2.816" ry="1.408"/><ellipse cx="1289.67" cy="1472.22" fill="#FFE4C0" rx="2.816" ry="1.408"/><ellipse cx="1471.96" cy="1564.18" fill="#FFE4C0" rx="2.858" ry="1.429" transform="rotate(-180 1471.96 1564.18)"/><ellipse cx="1447.2" cy="1393.86" fill="#fff" rx="2.426" ry="1.213" transform="rotate(-180 1447.2 1393.86)"/><ellipse cx="1457.24" cy="1442.59" fill="#fff" rx="2.564" ry="1.282" transform="rotate(-180 1457.24 1442.59)"/><ellipse cx="1443.14" cy="1430.28" fill="#fff" rx="2.564" ry="1.282" transform="rotate(-180 1443.14 1430.28)"/><ellipse cx="1491.86" cy="1450.79" fill="#fff" rx="2.564" ry="1.282" transform="rotate(-180 1491.86 1450.79)"/><ellipse cx="1537.35" cy="1393.54" fill="#fff" rx="2.852" ry="1.426" transform="rotate(-180 1537.35 1393.54)"/><ellipse cx="1521.82" cy="1385.25" fill="#fff" rx="2.852" ry="1.426" transform="rotate(-180 1521.82 1385.25)"/><ellipse cx="1537.51" cy="1385.25" fill="#fff" rx="2.852" ry="1.426" transform="rotate(-180 1537.51 1385.25)"/><ellipse cx="1518.97" cy="1396.39" fill="#fff" rx="2.852" ry="1.426" transform="rotate(-180 1518.97 1396.39)"/><ellipse cx="1543.21" cy="1389.26" fill="#fff" rx="2.852" ry="1.426" transform="rotate(-180 1543.21 1389.26)"/><ellipse cx="1561.04" cy="1396.39" fill="#fff" rx="2.852" ry="1.426" transform="rotate(-180 1561.04 1396.39)"/><ellipse cx="1481.6" cy="1442.59" fill="#fff" rx="2.564" ry="1.282" transform="rotate(-180 1481.6 1442.59)"/><ellipse cx="1432.65" cy="1371.82" fill="#fff" rx="2.426" ry="1.213" transform="rotate(-180 1432.65 1371.82)"/><ellipse cx="1524.3" cy="1469.02" fill="#fff" rx="3.046" ry="1.523" transform="rotate(-180 1524.3 1469.02)"/><ellipse cx="841" cy="1378" fill="#FFE4C0" rx="2" ry="1"/><ellipse cx="1326.98" cy="1479.97" fill="#FFE4C0" rx="2.816" ry="1.408"/><ellipse cx="1298.12" cy="1479.26" fill="#FFE4C0" rx="2.816" ry="1.408"/><ellipse cx="1463.39" cy="1557.04" fill="#FFE4C0" rx="2.858" ry="1.429" transform="rotate(-180 1463.39 1557.04)"/><ellipse cx="1439.93" cy="1387.8" fill="#fff" rx="2.426" ry="1.213" transform="rotate(-180 1439.93 1387.8)"/><ellipse cx="918" cy="1391" fill="#FFE4C0" rx="2" ry="1"/><ellipse cx="935" cy="1383" fill="#FFE4C0" rx="2" ry="1"/><ellipse cx="1075" cy="1425" fill="#fff" rx="2" ry="1"/><ellipse cx="1076" cy="1441" fill="#fff" rx="2" ry="1"/><ellipse cx="1102" cy="1392" fill="#fff" rx="2" ry="1"/><ellipse cx="1102" cy="1435" fill="#fff" rx="2" ry="1"/><ellipse cx="1084" cy="1410" fill="#fff" rx="2" ry="1"/><ellipse cx="1057" cy="1432" fill="#fff" rx="2" ry="1"/><ellipse cx="1057" cy="1389" fill="#fff" fill-opacity=".28" rx="2" ry="1"/><ellipse cx="1029.5" cy="1374" fill="#fff" fill-opacity=".28" rx="1.5" ry="1"/><ellipse cx="992.5" cy="1350" fill="#fff" fill-opacity=".28" rx="1.5" ry="1"/><ellipse cx="994.5" cy="1364" fill="#fff" fill-opacity=".28" rx="1.5" ry="1"/><ellipse cx="958.5" cy="1349" fill="#fff" fill-opacity=".28" rx="1.5" ry="1"/><ellipse cx="934.5" cy="1341" fill="#fff" fill-opacity=".28" rx="1.5" ry="1"/><ellipse cx="878.5" cy="1337" fill="#fff" fill-opacity=".28" rx="1.5" ry="1"/><ellipse cx="1016.5" cy="1362" fill="#fff" fill-opacity=".28" rx="1.5" ry="1"/><ellipse cx="1062.5" cy="1373" fill="#fff" fill-opacity=".28" rx="1.5" ry="1"/><ellipse cx="1072.5" cy="1391" fill="#fff" fill-opacity=".28" rx="1.5" ry="1"/><ellipse cx="933" cy="1392" fill="#FFE4C0" rx="2" ry="1"/><ellipse cx="927" cy="1387" fill="#FFE4C0" rx="2" ry="1"/><ellipse cx="926" cy="1392" fill="#FFE4C0" rx="2" ry="1"/><ellipse cx="920" cy="1388" fill="#FFE4C0" rx="2" ry="1"/><ellipse cx="949" cy="1386" fill="#FFE4C0" rx="2" ry="1"/><ellipse cx="909" cy="1383" fill="#FFE4C0" rx="2" ry="1"/><ellipse cx="895" cy="1378" fill="#FFE4C0" rx="2" ry="1"/><ellipse cx="812" cy="1378" fill="#FFE4C0" rx="2" ry="1"/><ellipse cx="1288.97" cy="1485.6" fill="#FFE4C0" rx="2.816" ry="1.408"/><ellipse cx="1257.99" cy="1483.64" fill="#FFE4C0" rx="2.816" ry="1.408"/><ellipse cx="1504.83" cy="1557.04" fill="#FFE4C0" rx="2.858" ry="1.429" transform="rotate(-180 1504.83 1557.04)"/><ellipse cx="1475.1" cy="1387.8" fill="#fff" rx="2.426" ry="1.213" transform="rotate(-180 1475.1 1387.8)"/><ellipse cx="816" cy="1377" fill="#FFE4C0" rx="2" ry="1"/><ellipse cx="1291.78" cy="1478.56" fill="#FFE4C0" rx="2.816" ry="1.408"/><ellipse cx="1262.92" cy="1477.86" fill="#FFE4C0" rx="2.816" ry="1.408"/><ellipse cx="1499.11" cy="1558.46" fill="#FFE4C0" rx="2.858" ry="1.429" transform="rotate(-180 1499.11 1558.46)"/><ellipse cx="1470.24" cy="1389.01" fill="#fff" rx="2.426" ry="1.213" transform="rotate(-180 1470.24 1389.01)"/><ellipse cx="821" cy="1381" fill="#FFC4C0" rx="2" ry="1"/><ellipse cx="1298.82" cy="1484.19" fill="#FFC4C0" rx="2.816" ry="1.408"/><ellipse cx="1269.96" cy="1483.49" fill="#FFC4C0" rx="2.816" ry="1.408"/><ellipse cx="1491.97" cy="1552.75" fill="#FFC4C0" rx="2.858" ry="1.429" transform="rotate(-180 1491.97 1552.75)"/><ellipse cx="1464.18" cy="1384.16" fill="#FFB0AB" rx="2.426" ry="1.213" transform="rotate(-180 1464.18 1384.16)"/><ellipse cx="849" cy="1385" fill="#FFC4C0" rx="2" ry="1"/><ellipse cx="1338.24" cy="1489.82" fill="#FFC4C0" rx="2.816" ry="1.408"/><ellipse cx="1309.38" cy="1489.12" fill="#FFC4C0" rx="2.816" ry="1.408"/><ellipse cx="1451.96" cy="1547.03" fill="#FFC4C0" rx="2.858" ry="1.429" transform="rotate(-180 1451.96 1547.03)"/><ellipse cx="1430.22" cy="1379.31" fill="#FFB0AB" rx="2.426" ry="1.213" transform="rotate(-180 1430.22 1379.31)"/><ellipse cx="902" cy="1390" fill="#FFC4C0" rx="2" ry="1"/><ellipse cx="973" cy="1390" fill="#FFC4C0" rx="2" ry="1"/><ellipse cx="928" cy="1380" fill="#FFC4C0" rx="2" ry="1"/><ellipse cx="890" cy="1394" fill="#FFC4C0" rx="2" ry="1"/><ellipse cx="882" cy="1376" fill="#FFC4C0" rx="2" ry="1"/><ellipse cx="832" cy="1356" fill="#FFC4C0" rx="2" ry="1"/><ellipse cx="790" cy="1372" fill="#FFC4C0" rx="2" ry="1"/><ellipse cx="1255.18" cy="1471.52" fill="#FFC4C0" rx="2.816" ry="1.408"/><ellipse cx="1226.32" cy="1470.82" fill="#FFC4C0" rx="2.816" ry="1.408"/><ellipse cx="1536.27" cy="1565.61" fill="#FFC4C0" rx="2.858" ry="1.429" transform="rotate(-180 1536.27 1565.61)"/><ellipse cx="1501.78" cy="1395.08" fill="#FFB0AB" rx="2.426" ry="1.213" transform="rotate(-180 1501.78 1395.08)"/><ellipse cx="612" cy="1342" fill="#FFC4C0" rx="2" ry="1"/><ellipse cx="824" cy="1371" fill="#FFC4C0" rx="2" ry="1"/><ellipse cx="1303.05" cy="1470.11" fill="#FFC4C0" rx="2.816" ry="1.408"/><ellipse cx="1274.18" cy="1469.41" fill="#FFC4C0" rx="2.816" ry="1.408"/><ellipse cx="1487.68" cy="1567.04" fill="#FFC4C0" rx="2.858" ry="1.429" transform="rotate(-180 1487.68 1567.04)"/><ellipse cx="1460.54" cy="1396.29" fill="#FFB0AB" rx="2.426" ry="1.213" transform="rotate(-180 1460.54 1396.29)"/><ellipse cx="801" cy="1375" fill="#FFC4C0" rx="2" ry="1"/><ellipse cx="1270.66" cy="1475.74" fill="#FFC4C0" rx="2.816" ry="1.408"/><ellipse cx="1241.8" cy="1475.04" fill="#FFC4C0" rx="2.816" ry="1.408"/><ellipse cx="1520.55" cy="1561.32" fill="#FFC4C0" rx="2.858" ry="1.429" transform="rotate(-180 1520.55 1561.32)"/><ellipse cx="1488.44" cy="1391.44" fill="#FFB0AB" rx="2.426" ry="1.213" transform="rotate(-180 1488.44 1391.44)"/><ellipse cx="793" cy="1373" fill="#FFC4C0" rx="2" ry="1"/><ellipse cx="1259.4" cy="1472.93" fill="#FFC4C0" rx="2.816" ry="1.408"/><ellipse cx="1241.1" cy="1484.54" fill="#FFC4C0" rx="2.816" ry="1.408"/><ellipse cx="1531.98" cy="1564.18" fill="#FFC4C0" rx="2.858" ry="1.429" transform="rotate(-180 1531.98 1564.18)"/><ellipse cx="1465.39" cy="1413.48" fill="#FFB0AB" rx="2.426" ry="1.213" transform="rotate(-180 1465.39 1413.48)"/><ellipse cx="593" cy="1355" fill="#FFC4C0" rx="2" ry="1"/><ellipse cx="496" cy="1400" fill="#FFC4C0" rx="2" ry="1"/><ellipse cx="477" cy="1389" fill="#FFC4C0" rx="2" ry="1"/><ellipse cx="500" cy="1388" fill="#FFC4C0" rx="2" ry="1"/><ellipse cx="521" cy="1392" fill="#FFC4C0" rx="2" ry="1"/><ellipse cx="586" cy="1351" fill="#FFC4C0" rx="2" ry="1"/><ellipse cx="608" cy="1353" fill="#FFC4C0" rx="2" ry="1"/><circle cx="748" cy="1356" r="2" fill="#fff"/><circle cx="738" cy="1360" r="2" fill="#fff"/><circle cx="509" cy="1370" r="2" fill="#fff"/><circle cx="2" cy="2" r="2" fill="#fff" transform="matrix(-1 0 0 1 494 1382)"/><circle cx="2" cy="2" r="2" fill="#fff" transform="matrix(-1 0 0 1 510 1390)"/><circle cx="2" cy="2" r="2" fill="#fff" transform="matrix(-1 0 0 1 533 1373)"/><circle cx="2" cy="2" r="2" fill="#fff" transform="matrix(-1 0 0 1 502 1369)"/><circle cx="740" cy="1358" r="1" fill="#fff"/><circle cx="511" cy="1368" r="1" fill="#fff"/><circle cx="1" cy="1" r="1" fill="#fff" transform="matrix(-1 0 0 1 491 1381)"/><circle cx="1" cy="1" r="1" fill="#fff" transform="matrix(-1 0 0 1 507 1389)"/><circle cx="746" cy="1354" r="1" fill="#fff"/><circle cx="756" cy="1354" r="1" fill="#fff"/><circle cx="742" cy="1364" r="1" fill="#fff"/><circle cx="748" cy="1366" r="1" fill="#fff"/><circle cx="2" cy="2" r="2" fill="#fff" transform="matrix(-1 0 0 1 752 1360)"/><circle cx="2" cy="2" r="2" fill="#fff" transform="matrix(-1 0 0 1 756 1354)"/><circle cx="2" cy="2" r="2" fill="#fff" transform="matrix(-1 0 0 1 748 1366)"/><circle cx="2" cy="2" r="2" fill="#fff" transform="matrix(-1 0 0 1 746 1360)"/><circle cx="2" cy="2" r="2" fill="#fff" transform="matrix(-1 0 0 1 746 1356)"/><ellipse cx="768" cy="1379" fill="#FFC4C0" rx="2" ry="1"/><ellipse cx="827" cy="1399" fill="#FFE4C0" rx="2" ry="1"/><ellipse cx="1307.27" cy="1509.53" fill="#FFE4C0" rx="2.816" ry="1.408"/><ellipse cx="1278.41" cy="1508.83" fill="#FFE4C0" rx="2.816" ry="1.408"/><ellipse cx="1483.39" cy="1527.03" fill="#FFE4C0" rx="2.858" ry="1.429" transform="rotate(-180 1483.39 1527.03)"/><ellipse cx="1456.9" cy="1362.33" fill="#fff" rx="2.426" ry="1.213" transform="rotate(-180 1456.9 1362.33)"/><ellipse cx="786" cy="1367" fill="#FFE4C0" rx="2" ry="1"/><ellipse cx="690" cy="1353" fill="#FFE4C0" rx="2" ry="1"/><ellipse cx="652" cy="1342" fill="#FFE4C0" rx="2" ry="1"/><ellipse cx="648" cy="1345" fill="#FFE4C0" rx="2" ry="1"/><ellipse cx="663" cy="1350" fill="#FFE4C0" rx="2" ry="1"/><ellipse cx="677" cy="1297.5" fill="#FFE4C0" rx="1" ry=".5"/><ellipse cx="687" cy="1307.5" fill="#FFE4C0" rx="1" ry=".5"/><ellipse cx="696" cy="1294.5" fill="#FFE4C0" rx="1" ry=".5"/><ellipse cx="695" cy="1302.5" fill="#FFE4C0" rx="1" ry=".5"/><ellipse cx="807" cy="1316.5" fill="#FFE4C0" rx="1" ry=".5"/><ellipse cx="790" cy="1301.5" fill="#FFE4C0" rx="1" ry=".5"/><ellipse cx="798" cy="1303.5" fill="#FFE4C0" rx="1" ry=".5"/><ellipse cx="799" cy="1308.5" fill="#FFE4C0" rx="1" ry=".5"/><ellipse cx="812" cy="1304.5" fill="#FFE4C0" rx="1" ry=".5"/><ellipse cx="643" cy="1339" fill="#FFE4C0" rx="2" ry="1"/><ellipse cx="513" cy="1374" fill="#FFE4C0" rx="2" ry="1"/><ellipse cx="522" cy="1376" fill="#FFE4C0" rx="2" ry="1"/><ellipse cx="513" cy="1382" fill="#FFE4C0" rx="2" ry="1"/><ellipse cx="498" cy="1381" fill="#FFE4C0" rx="2" ry="1"/><ellipse cx="526" cy="1383" fill="#FFE4C0" rx="2" ry="1"/><ellipse cx="477" cy="1400" fill="#FFE4C0" rx="2" ry="1"/><ellipse cx="541" cy="1360" fill="#FFE4C0" rx="2" ry="1"/><ellipse cx="890" cy="1382" fill="#FFE4C0" rx="2" ry="1"/><path fill="#000" fill-opacity=".16" d="M562 1339c-5.273-.63-15.606 3.54-20 6 18.254-11.86 25.859-6.02 36-1.58-3.211-1.41-10.727-3.79-16-4.42M627.222 1359c-3.222-.63-9.537 3.54-12.222 6 11.155-11.86 15.803-6.02 22-1.58-1.962-1.41-6.555-3.79-9.778-4.42"/><path fill="#426045" d="M181.154 1536.32c-1.533-2.39-2.708-8.43 4.854-13.54 2.129 3.06 4.139 10.06-4.854 13.54M79.133 1520.54c-1.533-2.38-2.708-8.43 4.855-13.54 2.128 3.07 4.138 10.07-4.855 13.54M42.015 1521.63c-.31-2.82 1.333-8.76 10.38-9.96.54 3.69-.782 10.85-10.38 9.96M152.839 1597.49c-1.533-2.38-2.708-8.43 4.855-13.54 2.128 3.07 4.138 10.07-4.855 13.54M102.971 1597.85c-2.645 1.02-8.804.95-12.278-7.49 3.433-1.47 10.695-2.02 12.278 7.49M131.536 1571.22c2.822-.28 8.738 1.44 9.831 10.5-3.7.49-10.845-.92-9.831-10.5M37.56 1597.6c2.709.84 7.503 4.7 5.01 13.48-3.603-.97-9.65-5.03-5.01-13.48M174.264 1581.07c2.821-.28 8.737 1.44 9.83 10.5-3.699.49-10.845-.92-9.83-10.5"/><path fill="#426045" d="M184.977 1534.84c-.556-2.78.558-8.84 9.464-10.83.862 3.63.177 10.88-9.464 10.83M96.055 1527.02c-.556-2.78.558-8.84 9.464-10.83.862 3.63.177 10.88-9.464 10.83"/><path fill="#2A4B2D" d="M194.757 1560.43c-.556-2.78.558-8.84 9.464-10.83.862 3.63.177 10.88-9.464 10.83M29.209 1569.76c-2.637 1.04-8.797 1.02-12.342-7.39 3.42-1.5 10.678-2.11 12.342 7.39M206.973 1577.43c-.556-2.78.558-8.84 9.464-10.84.862 3.64.177 10.89-9.464 10.84M147.626 1550c-1.694-.91-4.378-4.12-1.562-9.64 2.272 1.12 5.766 4.62 1.562 9.64M54.12 1541.24c-1.694-.92-4.378-4.12-1.561-9.64 2.272 1.12 5.765 4.62 1.562 9.64M167.516 1547.04c-1.694-.92-4.378-4.12-1.562-9.64 2.272 1.12 5.766 4.62 1.562 9.64M97.12 1544.24c-1.694-.92-4.378-4.12-1.562-9.64 2.273 1.12 5.766 4.62 1.563 9.64M187.406 1572.19c-1.694-.91-4.378-4.12-1.562-9.64 2.273 1.12 5.766 4.62 1.562 9.64M17.12 1534.24c-1.694-.92-4.378-4.12-1.562-9.64 2.273 1.12 5.766 4.62 1.563 9.64M27.486 1552.83c-.977-1.66-1.616-5.8 3.65-9.06 1.363 2.13 2.543 6.93-3.65 9.06M130.121 1562.81c-1.695-.91-4.379-4.12-1.562-9.64 2.272 1.12 5.765 4.62 1.562 9.64M154.46 1563.02c-.557-2.78.557-8.84 9.463-10.83.863 3.63.177 10.88-9.463 10.83M75.055 1556.02c-.556-2.78.558-8.84 9.464-10.83.862 3.63.177 10.88-9.464 10.83"/><path fill="#4F7853" d="M179.256 1552.71c-.224-1.11.224-3.55 3.8-4.35.346 1.46.071 4.37-3.8 4.35M43.639 1554.93c-.715-.89-1.446-3.25 1.352-5.62.983 1.13 2.087 3.84-1.352 5.62"/><path fill="#426045" d="M229.511 1547.4c-2.467-1.4-6.321-6.2-2.005-14.25 3.311 1.73 8.348 6.99 2.005 14.25M147.501 1531.49c-2.466-1.39-6.32-6.2-2.004-14.24 3.311 1.72 8.347 6.98 2.004 14.24M40.019 1521.65c-1.597-2.34-2.934-8.35 4.488-13.67 2.21 3.01 4.408 9.95-4.488 13.67M118.032 1525.21c-.239-5 3.304-15.29 19.388-16.43.55 6.58-2.559 19.06-19.388 16.43M78.637 1531.58c-4.065-2.93-9.914-12.11-.796-25.4 5.486 3.66 13.325 13.86.796 25.4"/><path fill="#426045" d="M223.941 1550.46c-.239-5 3.304-15.29 19.388-16.43.549 6.57-2.56 19.06-19.388 16.43"/><path fill="#4F7853" d="M232.505 1555c-2.741-.75-7.671-4.47-5.465-13.34 3.641.85 9.833 4.72 5.465 13.34M129.092 1544.31c-2.741-.75-7.672-4.46-5.466-13.34 3.642.85 9.834 4.72 5.466 13.34M194.546 1550.88c-2.741-.75-7.671-4.47-5.465-13.34 3.642.85 9.833 4.72 5.465 13.34M105.925 1539.56c-2.741-.75-7.671-4.47-5.465-13.34 3.641.85 9.833 4.72 5.465 13.34M75.025 1530.77c-2.216-.6-6.203-3.61-4.42-10.78 2.945.69 7.951 3.81 4.42 10.78M175.594 1572.51c-2.741-.75-7.672-4.46-5.466-13.34 3.642.86 9.834 4.72 5.466 13.34M92.963 1551.93c2.86.16 8.501 2.79 8.185 12.01-3.772-.08-10.688-2.6-8.185-12.01M78.767 1586.39c-2.773.16-8.503-1.74-9.233-10.65 3.641-.35 10.586 1.3 9.233 10.65"/><path fill="#CCDAE5" d="M547.252 1486.46c-2.466-1.4-6.32-6.2-2.004-14.25 3.311 1.73 8.347 6.99 2.004 14.25M746.701 1507.09c-2.467-1.4-6.321-6.2-2.005-14.25 3.311 1.73 8.348 6.99 2.005 14.25"/><path fill="#D9DEED" d="M865.856 1536.43c.035-2.83 2.386-8.53 11.512-8.62.087 3.73-2.093 10.68-11.512 8.62"/><path fill="#D9DEED" d="M865.785 1539.59c-2.173-1.82-5.094-7.24.606-14.37 2.945 2.3 6.946 8.38-.606 14.37"/></g><defs><linearGradient id="i" x1="361.855" x2="181.823" y1="1277.45" y2="1349.92" gradientUnits="userSpaceOnUse"><stop stop-color="#fff"/><stop offset="1" stop-color="#fff" stop-opacity="0"/></linearGradient><linearGradient id="j" x1="343.913" x2="184.39" y1="1252.09" y2="1305.41" gradientUnits="userSpaceOnUse"><stop stop-color="#fff"/><stop offset="1" stop-color="#fff" stop-opacity="0"/></linearGradient><linearGradient id="k" x1="332.7" x2="177.122" y1="1213.05" y2="1276.97" gradientUnits="userSpaceOnUse"><stop stop-color="#F1C480"/><stop offset="1" stop-color="#F3D4A4" stop-opacity="0"/></linearGradient><linearGradient id="m" x1="290.456" x2="259.112" y1="1273.51" y2="1299.82" gradientUnits="userSpaceOnUse"><stop stop-color="#fff" stop-opacity=".24"/><stop offset="1" stop-color="#3E2D6E" stop-opacity="0"/></linearGradient><linearGradient id="n" x1="270.921" x2="270.921" y1="1275.04" y2="1301.48" gradientUnits="userSpaceOnUse"><stop stop-opacity=".08"/><stop offset="1" stop-color="#3E2D6E" stop-opacity="0"/></linearGradient><linearGradient id="p" x1="230.425" x2="170.718" y1="1281.71" y2="1325.92" gradientUnits="userSpaceOnUse"><stop stop-color="#fff" stop-opacity=".06"/><stop offset="1" stop-color="#3E2D6E" stop-opacity="0"/></linearGradient><linearGradient id="q" x1="182.569" x2="182.569" y1="1268.04" y2="1344.61" gradientUnits="userSpaceOnUse"><stop stop-opacity=".08"/><stop offset="1" stop-color="#3E2D6E" stop-opacity="0"/></linearGradient><linearGradient id="u" x1="1427.76" x2="1427.76" y1="1105.32" y2="1538.78" gradientUnits="userSpaceOnUse"><stop stop-color="#E2E5F3"/><stop offset=".693" stop-color="#5F79DB"/></linearGradient><linearGradient id="v" x1="1469.19" x2="1469.19" y1="1114" y2="1310.78" gradientUnits="userSpaceOnUse"><stop stop-color="#5C9870"/><stop offset="1" stop-color="#376647"/></linearGradient><linearGradient id="w" x1="1257.04" x2="1100.79" y1="1231.16" y2="1350.78" gradientUnits="userSpaceOnUse"><stop stop-color="#5C9870"/><stop offset="1" stop-color="#376647"/></linearGradient><linearGradient id="x" x1="1590.57" x2="1274.88" y1="1338.63" y2="1252.66" gradientUnits="userSpaceOnUse"><stop stop-color="#fff"/><stop offset="1" stop-color="#fff" stop-opacity="0"/></linearGradient><linearGradient id="y" x1="1589.94" x2="1321.31" y1="1292.39" y2="1201.58" gradientUnits="userSpaceOnUse"><stop stop-color="#fff" stop-opacity="0"/><stop offset="1" stop-color="#5E92CF"/></linearGradient><linearGradient id="z" x1="1593.36" x2="1324.72" y1="1271.88" y2="1181.08" gradientUnits="userSpaceOnUse"><stop stop-color="#fff" stop-opacity="0"/><stop offset="1" stop-color="#6395D0" stop-opacity=".35"/></linearGradient><linearGradient id="A" x1="1616.98" x2="1342.85" y1="1222.41" y2="1149.86" gradientUnits="userSpaceOnUse"><stop stop-color="#5A96DD"/><stop offset="1" stop-color="#5C89E1" stop-opacity="0"/></linearGradient><linearGradient id="B" x1="1312.36" x2="1309.51" y1="1155.1" y2="1150.54" gradientUnits="userSpaceOnUse"><stop stop-color="#fff"/><stop offset="1" stop-color="#fff" stop-opacity="0"/></linearGradient><linearGradient id="C" x1="1589.44" x2="1403.27" y1="1145.57" y2="1096.12" gradientUnits="userSpaceOnUse"><stop stop-color="#374E8B"/><stop offset="1" stop-color="#5376D1" stop-opacity="0"/></linearGradient><linearGradient id="F" x1="853.25" x2="853.25" y1="1280.68" y2="1603.5" gradientUnits="userSpaceOnUse"><stop stop-color="#3B4588"/><stop offset="1" stop-color="#121837"/></linearGradient><linearGradient id="H" x1="853.25" x2="853.25" y1="1281" y2="1603.82" gradientUnits="userSpaceOnUse"><stop stop-color="#A3D1BB"/><stop offset="1" stop-color="#75ADC4"/></linearGradient><linearGradient id="K" x1="1032.5" x2="677" y1="1452.5" y2="1322" gradientUnits="userSpaceOnUse"><stop stop-color="#FFDFB7"/><stop offset="1" stop-color="#FFFCEA"/></linearGradient><linearGradient id="L" x1="1019.5" x2="664" y1="1459.5" y2="1329" gradientUnits="userSpaceOnUse"><stop stop-color="#76B0D0"/><stop offset="1" stop-color="#5F7DB7"/></linearGradient><linearGradient id="N" x1="1017.5" x2="662" y1="1459.5" y2="1329" gradientUnits="userSpaceOnUse"><stop stop-color="#76B0D0"/><stop offset="1" stop-color="#5F7DB7"/></linearGradient><linearGradient id="O" x1="876.855" x2="498.255" y1="1395.17" y2="1403.7" gradientUnits="userSpaceOnUse"><stop stop-color="#76B0D0"/><stop offset="1" stop-color="#5F7DB7"/></linearGradient><linearGradient id="P" x1="414.5" x2="1563.5" y1="1488.5" y2="1508" gradientUnits="userSpaceOnUse"><stop stop-color="#F3F1E2"/><stop offset="1" stop-color="#BCC5F2"/></linearGradient><linearGradient id="R" x1="929.15" x2="929.15" y1="1437" y2="1528.13" gradientUnits="userSpaceOnUse"><stop stop-color="#5B8C60"/><stop offset="1" stop-color="#3A523C"/></linearGradient><linearGradient id="S" x1="775.324" x2="814.504" y1="1453.87" y2="1536.15" gradientUnits="userSpaceOnUse"><stop stop-color="#5B8C60"/><stop offset="1" stop-color="#3A523C"/></linearGradient><linearGradient id="T" x1="782.324" x2="821.504" y1="1449.87" y2="1532.15" gradientUnits="userSpaceOnUse"><stop stop-color="#5B8C60"/><stop offset="1" stop-color="#3A523C"/></linearGradient><linearGradient id="U" x1="934.65" x2="934.65" y1="1466" y2="1557.13" gradientUnits="userSpaceOnUse"><stop stop-color="#5B8C60"/><stop offset="1" stop-color="#3A523C"/></linearGradient><linearGradient id="V" x1="518.65" x2="518.65" y1="1439" y2="1530.13" gradientUnits="userSpaceOnUse"><stop stop-color="#5B8C60"/><stop offset="1" stop-color="#3A523C"/></linearGradient><linearGradient id="W" x1="875" x2="825.5" y1="1428.71" y2="1563.21" gradientUnits="userSpaceOnUse"><stop stop-color="#A8A8A8"/><stop offset="1" stop-color="#101533"/></linearGradient><linearGradient id="Y" x1="875" x2="825.5" y1="1428.71" y2="1563.21" gradientUnits="userSpaceOnUse"><stop stop-color="#ABABAB"/><stop offset="1" stop-color="#707070"/></linearGradient><linearGradient id="Z" x1="887.5" x2="808.734" y1="1447.71" y2="1567.71" gradientUnits="userSpaceOnUse"><stop stop-opacity="0"/><stop offset="1" stop-opacity=".15"/></linearGradient><linearGradient id="aa" x1="411.37" x2="459.654" y1="1389.71" y2="1525.23" gradientUnits="userSpaceOnUse"><stop stop-color="#A8A8A8"/><stop offset="1" stop-color="#101533"/></linearGradient><linearGradient id="ac" x1="411.37" x2="459.654" y1="1389.71" y2="1525.23" gradientUnits="userSpaceOnUse"><stop stop-color="#ABABAB"/><stop offset="1" stop-color="#707070"/></linearGradient><linearGradient id="ad" x1="404.5" x2="483.266" y1="1408.71" y2="1528.71" gradientUnits="userSpaceOnUse"><stop stop-opacity="0"/><stop offset="1" stop-opacity=".15"/></linearGradient><linearGradient id="ae" x1="922" x2="922" y1="1451" y2="1542" gradientUnits="userSpaceOnUse"><stop stop-color="#5B8C60"/><stop offset="1" stop-color="#3A523C"/></linearGradient><linearGradient id="af" x1="509" x2="509" y1="1424" y2="1515" gradientUnits="userSpaceOnUse"><stop stop-color="#5B8C60"/><stop offset="1" stop-color="#3A523C"/></linearGradient><linearGradient id="ag" x1="153.645" x2="373.404" y1="1346.61" y2="1521.13" gradientUnits="userSpaceOnUse"><stop stop-color="#00255C"/><stop offset="1" stop-color="#110534"/></linearGradient><linearGradient id="ai" x1="160" x2="379" y1="1347.5" y2="1518.5" gradientUnits="userSpaceOnUse"><stop stop-color="#A5CDD3"/><stop offset="1" stop-color="#75B39F"/></linearGradient><linearGradient id="aj" x1="481.842" x2="152.02" y1="1555.57" y2="1366.46" gradientUnits="userSpaceOnUse"><stop/><stop offset="1" stop-opacity="0"/></linearGradient><linearGradient id="al" x1="585" x2="1559.5" y1="1538" y2="1538" gradientUnits="userSpaceOnUse"><stop stop-color="#6FA6C8"/><stop offset="1" stop-color="#658DBD"/></linearGradient><linearGradient id="am" x1="432.989" x2="432.989" y1="1449.87" y2="1541" gradientUnits="userSpaceOnUse"><stop stop-color="#5B8C60"/><stop offset="1" stop-color="#3A523C"/></linearGradient><linearGradient id="an" x1="438.489" x2="438.489" y1="1478.87" y2="1570" gradientUnits="userSpaceOnUse"><stop stop-color="#5B8C60"/><stop offset="1" stop-color="#3A523C"/></linearGradient><linearGradient id="ao" x1="425.84" x2="425.84" y1="1463.87" y2="1554.87" gradientUnits="userSpaceOnUse"><stop stop-color="#5B8C60"/><stop offset="1" stop-color="#3A523C"/></linearGradient><linearGradient id="ap" x1="258.064" x2="258.064" y1="1475" y2="1566.13" gradientUnits="userSpaceOnUse"><stop stop-color="#5B8C60"/><stop offset="1" stop-color="#3A523C"/></linearGradient><linearGradient id="aq" x1="263.564" x2="263.564" y1="1504" y2="1595.13" gradientUnits="userSpaceOnUse"><stop stop-color="#5B8C60"/><stop offset="1" stop-color="#3A523C"/></linearGradient><linearGradient id="ar" x1="250.914" x2="250.914" y1="1489" y2="1580" gradientUnits="userSpaceOnUse"><stop stop-color="#5B8C60"/><stop offset="1" stop-color="#3A523C"/></linearGradient><linearGradient id="as" x1="222.217" x2="222.217" y1="1490.31" y2="1581.44" gradientUnits="userSpaceOnUse"><stop stop-color="#5B8C60"/><stop offset="1" stop-color="#3A523C"/></linearGradient><linearGradient id="at" x1="227.717" x2="227.717" y1="1519.31" y2="1610.44" gradientUnits="userSpaceOnUse"><stop stop-color="#5B8C60"/><stop offset="1" stop-color="#3A523C"/></linearGradient><linearGradient id="au" x1="215.067" x2="215.067" y1="1504.31" y2="1595.31" gradientUnits="userSpaceOnUse"><stop stop-color="#5B8C60"/><stop offset="1" stop-color="#3A523C"/></linearGradient><linearGradient id="av" x1="152.879" x2="152.879" y1="1497" y2="1572.2" gradientUnits="userSpaceOnUse"><stop stop-color="#5B8C60"/><stop offset="1" stop-color="#3A523C"/></linearGradient><linearGradient id="aw" x1="157.418" x2="157.418" y1="1520.93" y2="1596.13" gradientUnits="userSpaceOnUse"><stop stop-color="#5B8C60"/><stop offset="1" stop-color="#3A523C"/></linearGradient><linearGradient id="ax" x1="146.979" x2="146.979" y1="1508.55" y2="1583.64" gradientUnits="userSpaceOnUse"><stop stop-color="#5B8C60"/><stop offset="1" stop-color="#3A523C"/></linearGradient><linearGradient id="ay" x1="101.066" x2="99.368" y1="1481.36" y2="1570.96" gradientUnits="userSpaceOnUse"><stop stop-color="#5B8C60"/><stop offset="1" stop-color="#3A523C"/></linearGradient><linearGradient id="az" x1="95.118" x2="93.421" y1="1509.77" y2="1599.37" gradientUnits="userSpaceOnUse"><stop stop-color="#5B8C60"/><stop offset="1" stop-color="#3A523C"/></linearGradient><linearGradient id="aA" x1="107.835" x2="106.14" y1="1495.25" y2="1584.73" gradientUnits="userSpaceOnUse"><stop stop-color="#5B8C60"/><stop offset="1" stop-color="#3A523C"/></linearGradient><linearGradient id="aB" x1="22.15" x2="22.15" y1="1448" y2="1539.13" gradientUnits="userSpaceOnUse"><stop stop-color="#5B8C60"/><stop offset="1" stop-color="#3A523C"/></linearGradient><linearGradient id="aC" x1="27.65" x2="27.65" y1="1477" y2="1568.13" gradientUnits="userSpaceOnUse"><stop stop-color="#5B8C60"/><stop offset="1" stop-color="#3A523C"/></linearGradient><linearGradient id="aD" x1="15" x2="15" y1="1462" y2="1553" gradientUnits="userSpaceOnUse"><stop stop-color="#5B8C60"/><stop offset="1" stop-color="#3A523C"/></linearGradient><linearGradient id="aE" x1="1193.65" x2="1193.65" y1="1390" y2="1481.13" gradientUnits="userSpaceOnUse"><stop stop-color="#5B8C60"/><stop offset="1" stop-color="#3A523C"/></linearGradient><linearGradient id="aF" x1="1090.3" x2="1090.3" y1="1473" y2="1564.13" gradientUnits="userSpaceOnUse"><stop stop-color="#5B8C60"/><stop offset="1" stop-color="#3A523C"/></linearGradient><linearGradient id="aG" x1="1186.5" x2="1186.5" y1="1414" y2="1505" gradientUnits="userSpaceOnUse"><stop stop-color="#5B8C60"/><stop offset="1" stop-color="#3A523C"/></linearGradient><linearGradient id="aH" x1="1181" x2="1181" y1="1440" y2="1531" gradientUnits="userSpaceOnUse"><stop stop-color="#5B8C60"/><stop offset="1" stop-color="#3A523C"/></linearGradient><linearGradient id="aI" x1="1581.5" x2="1296.11" y1="1303.53" y2="1418.57" gradientUnits="userSpaceOnUse"><stop stop-color="#353F7D"/><stop offset="1" stop-color="#1F234E"/></linearGradient><linearGradient id="aK" x1="1582.5" x2="1223.82" y1="1303.52" y2="1496.02" gradientUnits="userSpaceOnUse"><stop stop-color="#FFEAC7"/><stop offset="1" stop-color="#A6D2C8"/></linearGradient><linearGradient id="aL" x1="704" x2="457" y1="1476" y2="1587" gradientUnits="userSpaceOnUse"><stop stop-color="#354E8F"/><stop offset="1" stop-color="#1F3161"/></linearGradient><linearGradient id="aN" x1="352.5" x2="630" y1="1595.5" y2="1460.5" gradientUnits="userSpaceOnUse"><stop stop-color="#ABD6D2"/><stop offset="1" stop-color="#D6DAEB"/></linearGradient><filter id="e" width="353.779" height="353.779" x="53.08" y="1190.96" color-interpolation-filters="sRGB" filterUnits="userSpaceOnUse"><feFlood flood-opacity="0" result="BackgroundImageFix"/><feBlend in="SourceGraphic" in2="BackgroundImageFix" result="shape"/><feGaussianBlur result="effect1_foregroundBlur_1708_147" stdDeviation="8"/></filter><filter id="l" width="38.257" height="36.435" x="254.595" y="1267.6" color-interpolation-filters="sRGB" filterUnits="userSpaceOnUse"><feFlood flood-opacity="0" result="BackgroundImageFix"/><feBlend in="SourceGraphic" in2="BackgroundImageFix" result="shape"/><feGaussianBlur result="effect1_foregroundBlur_1708_147" stdDeviation="2"/></filter><filter id="o" width="94.645" height="84.986" x="138.327" y="1264.05" color-interpolation-filters="sRGB" filterUnits="userSpaceOnUse"><feFlood flood-opacity="0" result="BackgroundImageFix"/><feBlend in="SourceGraphic" in2="BackgroundImageFix" result="shape"/><feGaussianBlur result="effect1_foregroundBlur_1708_147" stdDeviation="2"/></filter><filter id="r" width="409.7" height="407.983" x="1212.92" y="1099.73" color-interpolation-filters="sRGB" filterUnits="userSpaceOnUse"><feFlood flood-opacity="0" result="BackgroundImageFix"/><feBlend in="SourceGraphic" in2="BackgroundImageFix" result="shape"/><feGaussianBlur result="effect1_foregroundBlur_1708_147" stdDeviation="8"/></filter><filter id="I" width="651.391" height="387.183" x="691.968" y="1112.72" color-interpolation-filters="sRGB" filterUnits="userSpaceOnUse"><feFlood flood-opacity="0" result="BackgroundImageFix"/><feBlend in="SourceGraphic" in2="BackgroundImageFix" result="shape"/><feGaussianBlur result="effect1_foregroundBlur_1708_147" stdDeviation="43.5"/></filter><filter id="J" width="497" height="341.121" x="76" y="1267" color-interpolation-filters="sRGB" filterUnits="userSpaceOnUse"><feFlood flood-opacity="0" result="BackgroundImageFix"/><feBlend in="SourceGraphic" in2="BackgroundImageFix" result="shape"/><feGaussianBlur result="effect1_foregroundBlur_1708_147" stdDeviation="26"/></filter><filter id="Q" width="106" height="106" x="1152" y="1394" color-interpolation-filters="sRGB" filterUnits="userSpaceOnUse"><feFlood flood-opacity="0" result="BackgroundImageFix"/><feBlend in="SourceGraphic" in2="BackgroundImageFix" result="shape"/><feGaussianBlur result="effect1_foregroundBlur_1708_147" stdDeviation="10"/></filter><filter id="ak" width="440.862" height="440.862" x="-32.607" y="1127.64" color-interpolation-filters="sRGB" filterUnits="userSpaceOnUse"><feFlood flood-opacity="0" result="BackgroundImageFix"/><feBlend in="SourceGraphic" in2="BackgroundImageFix" result="shape"/><feGaussianBlur result="effect1_foregroundBlur_1708_147" stdDeviation="50"/></filter><radialGradient id="b" cx="0" cy="0" r="1" gradientTransform="rotate(90 -573.5 798)scale(361.5)" gradientUnits="userSpaceOnUse"><stop offset=".807" stop-color="#fff" stop-opacity="0"/><stop offset="1" stop-color="#fff" stop-opacity=".21"/></radialGradient><radialGradient id="c" cx="0" cy="0" r="1" gradientTransform="rotate(90 -573.5 798)scale(224.5)" gradientUnits="userSpaceOnUse"><stop offset=".667" stop-color="#fff" stop-opacity="0"/><stop offset="1" stop-color="#fff"/></radialGradient><radialGradient id="d" cx="0" cy="0" r="1" gradientTransform="rotate(90 -573.5 798)scale(310.5)" gradientUnits="userSpaceOnUse"><stop offset=".667" stop-color="#fff" stop-opacity="0"/><stop offset="1" stop-color="#fff"/></radialGradient><radialGradient id="f" cx="0" cy="0" r="1" gradientTransform="rotate(90 -573.5 798)scale(160.889)" gradientUnits="userSpaceOnUse"><stop offset=".719" stop-color="#2E1D5E"/><stop offset="1" stop-color="#413072"/></radialGradient><radialGradient id="h" cx="0" cy="0" r="1" gradientTransform="rotate(90 -573.5 798)scale(160.889)" gradientUnits="userSpaceOnUse"><stop offset=".542" stop-color="#FFCE93"/><stop offset="1" stop-color="#fff"/></radialGradient><radialGradient id="s" cx="0" cy="0" r="1" gradientTransform="rotate(27.25 -2011.157 3597.527)scale(201.019)" gradientUnits="userSpaceOnUse"><stop offset=".719" stop-color="#2E1D5E"/><stop offset="1" stop-color="#413072"/></radialGradient><radialGradient id="D" cx="0" cy="0" r="1" gradientTransform="rotate(27.25 -2011.157 3597.527)scale(201.019)" gradientUnits="userSpaceOnUse"><stop offset=".719" stop-color="#917EC8"/><stop offset="1" stop-color="#816CBE"/></radialGradient><clipPath id="a"><path fill="#fff" d="M0 0h1687v1724H0z"/></clipPath></defs></svg>